# Blender 3.6.2
# www.blender.org
mtllib faceGeo.mtl
o Cube
v -4215.008789 -4075.226562 900.000000
v -4215.008789 -4075.226562 1100.000000
v -3061.799561 -4.837275 1800.000000
v -3061.799561 -4.837275 2000.000000
v -2355.343750 -4321.943359 900.000000
v -2355.343750 -4321.943359 1100.000000
v 87.364395 -4.837275 1800.000000
v 87.364395 -4.837275 2000.000000
v -2855.543701 -7012.170410 -100.000000
v -2855.543701 -7012.170410 100.000000
v -215.888596 -8718.221680 -100.000000
v -215.888596 -8718.221680 100.000000
v -6357.256836 -9802.144531 -100.000000
v -6357.256836 -9802.144531 100.000000
v -34.039108 -11689.354492 -100.000000
v -34.039108 -11689.354492 100.000000
v -5405.717773 -13308.826172 -100.000000
v -5405.717773 -13308.826172 100.000000
v 192.864944 -16886.851562 -100.000000
v 192.864944 -16886.851562 100.000000
v -7003.652832 -17045.744141 -100.000000
v -7003.652832 -17045.744141 100.000000
v -1616.422119 -19899.134766 -100.000000
v -1616.422119 -19899.134766 100.000000
v 2702.128418 -7868.824219 -100.000000
v 2702.128418 -7868.824219 100.000000
v 4708.146484 -10525.444336 -100.000000
v 4708.146484 -10525.444336 100.000000
v 5768.381348 -16266.417969 -100.000000
v 5768.381348 -16266.417969 100.000000
v 895.386414 -7837.588379 -100.000000
v 2806.965820 -7239.800293 -100.000000
v 1566.344604 -4545.698730 900.000000
v 3415.021973 -4199.519531 900.000000
v 140.557007 46.174145 1800.000000
v 2219.876221 245.580811 1800.000000
v 1575.334717 4133.119141 900.000000
v 3415.907715 4360.613770 900.000000
v 526.961426 6823.943359 -100.000000
v 2297.642578 6894.181641 -100.000000
v -4408.667480 4084.302490 900.000000
v -4408.667480 4084.302490 1100.000000
v -2472.898193 4157.105957 900.000000
v -2472.898193 4157.105957 1100.000000
v -3254.349121 7590.860840 -100.000000
v -3254.349121 7590.860840 100.000000
v -1318.580078 7663.664062 -100.000000
v -1318.580078 7663.664062 100.000000
v -5159.387207 10247.225586 -100.000000
v -5159.387207 10247.225586 100.000000
v -556.556702 8684.567383 -100.000000
v -556.556702 8684.567383 100.000000
v -6203.938477 15532.795898 -100.000000
v -6203.938477 15532.795898 100.000000
v -2280.454102 16461.072266 -100.000000
v -2280.454102 16461.072266 100.000000
v 553.617676 11822.160156 -100.000000
v 553.617676 11822.160156 100.000000
v 1043.883667 19779.566406 -100.000000
v 1043.883667 19779.566406 100.000000
v 4966.044434 13565.606445 -100.000000
v 4966.044434 13565.606445 100.000000
v 6720.766602 17415.722656 -100.000000
v 6720.766602 17415.722656 100.000000
v 505.996124 6790.629395 -100.000000
v 505.996124 6790.629395 100.000000
v 2332.559326 6905.412109 -100.000000
v 2332.559326 6905.412109 100.000000
v 5958.705566 9959.326172 -100.000000
v -215.888596 -8718.221680 100.000000
v 2702.128418 -7868.824219 100.000000
v 895.386414 -7837.588379 100.000000
v 2806.965820 -7239.800293 100.000000
v 1566.344604 -4545.698730 1100.000000
v 3415.021973 -4199.519531 1100.000000
v 140.557007 46.174145 2000.000000
v 2219.876221 245.580811 2000.000000
v 1575.334717 4133.119141 1100.000000
v 3415.907715 4360.613770 1100.000000
v 526.961426 6823.943359 100.000000
v 2297.642578 6894.181641 100.000000
v 4966.044434 13565.606445 100.000000
v 553.617676 11822.160156 100.000000
v 5958.705566 9959.326172 100.000000
v 2332.559326 6905.412109 100.000000
vn -0.9621 0.2726 -0.0000
vn 0.8517 0.5240 -0.0000
vn 0.8703 -0.4925 -0.0000
vn -0.1398 -0.3221 0.9363
vn 0.0101 0.2057 -0.9786
vn -0.0101 -0.2057 0.9786
vn -0.0000 -0.0000 1.0000
vn 0.8992 0.4376 -0.0000
vn -0.9075 -0.4201 -0.0000
vn 0.1398 0.3221 -0.9363
vn -0.0000 -0.0000 -1.0000
vn -0.6231 0.7821 -0.0000
vn -0.9651 -0.2619 -0.0000
vn -0.4681 -0.8837 -0.0000
vn 0.8573 -0.5149 -0.0000
vn -0.9195 0.3932 -0.0000
vn 0.7980 0.6026 -0.0000
vn 0.9834 0.1816 -0.0000
vn -0.2795 0.9601 -0.0000
vn 0.1106 -0.9939 -0.0000
vn 0.9864 -0.1644 -0.0000
vn -0.9435 0.3312 -0.0000
vn 0.9806 -0.1961 -0.0000
vn -0.9318 -0.3630 -0.0000
vn 0.9657 0.2596 -0.0000
vn 0.9499 -0.3127 -0.0000
vn 0.0030 -0.2118 -0.9773
vn -0.0030 0.2118 0.9773
vn -0.9498 -0.3128 -0.0000
vn 0.0104 -0.2774 -0.9607
vn -0.0104 0.2774 0.9607
vn -0.9499 0.3127 -0.0000
vn -0.9810 -0.1939 -0.0000
vn -0.8126 -0.5828 -0.0000
vn 0.8014 -0.5982 -0.0000
vn -0.2302 0.9731 -0.0000
vn 0.3844 0.9232 -0.0000
vn -0.7065 0.7077 -0.0000
vn 0.9100 -0.4147 -0.0000
vn 0.3675 -0.9300 -0.0000
vn 0.0627 -0.9980 -0.0000
vn 0.9403 0.3402 -0.0000
vn -0.8721 -0.4893 -0.0000
vn 0.6442 -0.7649 -0.0000
vn 0.0790 -0.3147 0.9459
vn 0.0261 -0.1880 0.9818
vn -0.0241 0.2217 0.9748
vn -0.0286 0.3470 0.9374
vn -0.9550 -0.2965 -0.0000
vn -0.9799 0.1997 -0.0000
vn -0.0396 0.9992 -0.0000
vn -0.6211 0.7837 -0.0000
vn 0.2795 -0.9601 -0.0000
vn 0.9148 0.4038 -0.0000
vn 0.9603 -0.2791 -0.0000
vn -0.3675 0.9300 -0.0000
vn 0.9641 0.2654 -0.0000
vn -0.9403 -0.3402 -0.0000
vt 0.375000 0.000000
vt 0.625000 0.000000
vt 0.625000 0.250000
vt 0.375000 0.250000
vt 0.625000 0.500000
vt 0.375000 0.500000
vt 0.625000 0.750000
vt 0.375000 0.750000
vt 0.875000 0.750000
vt 0.125000 0.500000
vt 0.125000 0.750000
vt 0.875000 0.500000
vt 0.625000 1.000000
vt 0.375000 1.000000
vt 0.000000 0.000000
s 0
f 1/1/1 2/2/1 4/3/1 3/4/1
f 8/5/2 7/6/2 43/6/2 44/5/2
f 7/6/3 8/5/3 6/7/3 5/8/3
f 6/7/4 2/9/4 10/9/4 12/7/4
f 3/10/5 7/6/5 5/8/5 1/11/5
f 8/5/6 4/12/6 2/9/6 6/7/6
f 12/7/7 10/9/7 14/9/7 16/7/7
f 5/8/8 6/7/8 12/7/8 11/8/8
f 2/2/9 1/1/9 9/1/9 10/2/9
f 1/11/10 5/8/10 11/8/10 9/11/10
f 13/11/11 15/8/11 19/8/11 17/11/11
f 16/7/7 20/7/7 30/7/7 28/7/7
f 9/11/11 11/8/11 15/8/11 13/11/11
f 10/2/12 9/1/12 13/1/12 14/2/12
f 20/7/7 18/9/7 22/9/7 24/7/7
f 14/2/13 13/1/13 17/1/13 18/2/13
f 16/7/7 14/9/7 18/9/7 20/7/7
f 15/8/11 11/8/11 25/8/11 27/8/11
f 23/8/14 24/7/14 22/13/14 21/14/14
f 19/8/15 20/7/15 24/7/15 23/8/15
f 17/11/11 19/8/11 23/8/11 21/11/11
f 18/2/16 17/1/16 21/1/16 22/2/16
f 25/8/17 26/7/17 28/7/17 27/8/17
f 27/8/18 28/7/18 30/7/18 29/8/18
f 11/8/19 12/7/19 26/7/19 25/8/19
f 20/7/20 19/8/20 29/8/20 30/7/20
f 12/7/7 16/7/7 28/7/7 26/7/7
f 19/8/11 15/8/11 27/8/11 29/8/11
f 25/15/21 32/15/21 73/15/21 71/15/21
f 37/15/22 35/15/22 76/15/22 78/15/22
f 32/15/23 34/15/23 75/15/23 73/15/23
f 39/15/24 37/15/24 78/15/24 80/15/24
f 34/15/25 36/15/25 77/15/25 75/15/25
f 44/5/26 43/6/26 47/6/26 48/5/26
f 7/6/27 3/10/27 41/10/27 43/6/27
f 4/12/28 8/5/28 44/5/28 42/12/28
f 3/4/29 4/3/29 42/3/29 41/4/29
f 46/12/7 48/5/7 52/5/7 50/12/7
f 43/6/30 41/10/30 45/10/30 47/6/30
f 42/12/31 44/5/31 48/5/31 46/12/31
f 41/4/32 42/3/32 46/3/32 45/4/32
f 49/4/33 50/3/33 54/3/33 53/4/33
f 45/4/34 46/3/34 50/3/34 49/4/34
f 48/5/35 47/6/35 51/6/35 52/5/35
f 47/6/11 45/10/11 49/10/11 51/6/11
f 53/4/36 54/3/36 56/5/36 55/6/36
f 56/5/7 52/5/7 58/5/7 60/5/7
f 51/6/11 49/10/11 53/10/11 55/6/11
f 50/12/7 52/5/7 56/5/7 54/12/7
f 59/6/37 60/5/37 64/5/37 63/6/37
f 55/6/38 56/5/38 60/5/38 59/6/38
f 58/5/7 52/5/7 66/5/7 68/5/7
f 51/6/11 55/6/11 59/6/11 57/6/11
f 62/5/39 61/6/39 63/6/39 64/5/39
f 57/6/11 59/6/11 63/6/11 61/6/11
f 58/5/40 57/6/40 61/6/40 62/5/40
f 60/5/7 58/5/7 62/5/7 64/5/7
f 66/5/41 65/6/41 67/6/41 68/5/41
f 57/6/42 58/5/42 68/5/42 67/6/42
f 52/5/43 51/6/43 65/6/43 66/5/43
f 51/6/11 57/6/11 67/6/11 65/6/11
f 67/15/44 69/15/44 84/15/44 85/15/44
f 70/8/7 71/8/7 73/8/7 72/8/7
f 72/8/45 73/8/45 75/8/45 74/8/45
f 74/8/46 75/8/46 77/8/46 76/8/46
f 76/8/47 77/8/47 79/8/47 78/8/47
f 78/8/48 79/8/48 81/8/48 80/8/48
f 35/15/49 33/15/49 74/15/49 76/15/49
f 33/15/50 31/15/50 72/15/50 74/15/50
f 40/15/51 39/15/51 80/15/51 81/15/51
f 31/15/52 11/15/52 70/15/52 72/15/52
f 11/8/53 25/8/53 71/8/53 70/8/53
f 38/15/54 40/15/54 81/15/54 79/15/54
f 36/15/55 38/15/55 79/15/55 77/15/55
f 82/6/7 83/6/7 85/6/7 84/6/7
f 61/6/56 57/6/56 83/6/56 82/6/56
f 69/15/57 61/15/57 82/15/57 84/15/57
f 57/6/58 67/6/58 85/6/58 83/6/58
